%TF.GenerationSoftware,KiCad,Pcbnew,6.0.9+dfsg-1~bpo11+1*%
%TF.CreationDate,2022-12-19T09:45:28+00:00*%
%TF.ProjectId,ds_lite_tv_out,64735f6c-6974-4655-9f74-765f6f75742e,rev?*%
%TF.SameCoordinates,Original*%
%TF.FileFunction,Legend,Top*%
%TF.FilePolarity,Positive*%
%FSLAX46Y46*%
G04 Gerber Fmt 4.6, Leading zero omitted, Abs format (unit mm)*
G04 Created by KiCad (PCBNEW 6.0.9+dfsg-1~bpo11+1) date 2022-12-19 09:45:28*
%MOMM*%
%LPD*%
G01*
G04 APERTURE LIST*
%ADD10C,0.150000*%
%ADD11C,0.120000*%
G04 APERTURE END LIST*
D10*
X118600000Y-80831904D02*
X118552380Y-80927142D01*
X118552380Y-81070000D01*
X118600000Y-81212857D01*
X118695238Y-81308095D01*
X118790476Y-81355714D01*
X118980952Y-81403333D01*
X119123809Y-81403333D01*
X119314285Y-81355714D01*
X119409523Y-81308095D01*
X119504761Y-81212857D01*
X119552380Y-81070000D01*
X119552380Y-80974761D01*
X119504761Y-80831904D01*
X119457142Y-80784285D01*
X119123809Y-80784285D01*
X119123809Y-80974761D01*
X119552380Y-80355714D02*
X118552380Y-80355714D01*
X119552380Y-79784285D01*
X118552380Y-79784285D01*
X119552380Y-79308095D02*
X118552380Y-79308095D01*
X118552380Y-79070000D01*
X118600000Y-78927142D01*
X118695238Y-78831904D01*
X118790476Y-78784285D01*
X118980952Y-78736666D01*
X119123809Y-78736666D01*
X119314285Y-78784285D01*
X119409523Y-78831904D01*
X119504761Y-78927142D01*
X119552380Y-79070000D01*
X119552380Y-79308095D01*
X140945714Y-80492380D02*
X141517142Y-80492380D01*
X141231428Y-81492380D02*
X141231428Y-80492380D01*
X141707619Y-80492380D02*
X142040952Y-81492380D01*
X142374285Y-80492380D01*
D11*
%TO.C,R3*%
X126170276Y-84072500D02*
X126679724Y-84072500D01*
X126170276Y-83027500D02*
X126679724Y-83027500D01*
%TO.C,R9*%
X137895276Y-83027500D02*
X138404724Y-83027500D01*
X137895276Y-84072500D02*
X138404724Y-84072500D01*
%TO.C,R5*%
X130145276Y-83027500D02*
X130654724Y-83027500D01*
X130145276Y-84072500D02*
X130654724Y-84072500D01*
%TO.C,R6*%
X130145276Y-81077500D02*
X130654724Y-81077500D01*
X130145276Y-82122500D02*
X130654724Y-82122500D01*
%TO.C,R7*%
X134095276Y-83027500D02*
X134604724Y-83027500D01*
X134095276Y-84072500D02*
X134604724Y-84072500D01*
%TO.C,R8*%
X134095276Y-82122500D02*
X134604724Y-82122500D01*
X134095276Y-81077500D02*
X134604724Y-81077500D01*
%TO.C,R2*%
X122754724Y-82122500D02*
X122245276Y-82122500D01*
X122754724Y-81077500D02*
X122245276Y-81077500D01*
%TO.C,R4*%
X126170276Y-81077500D02*
X126679724Y-81077500D01*
X126170276Y-82122500D02*
X126679724Y-82122500D01*
%TO.C,R1*%
X122754724Y-83027500D02*
X122245276Y-83027500D01*
X122754724Y-84072500D02*
X122245276Y-84072500D01*
%TO.C,R10*%
X137907776Y-81077500D02*
X138417224Y-81077500D01*
X137907776Y-82122500D02*
X138417224Y-82122500D01*
%TD*%
M02*
